@startuml
'skinparam monochrome true
skinparam packageStyle rectangle
skinparam shadowing false
skinparam linetype polyline
'skinparam linetype orto

skinparam classAttributeIconSize 0

'left to right directio
class Property{
    - double area
    - double distanceFromCenter
    - double price
    - Address address
    + getAddress()
    + getArea()
    + getDistanceFromCenter()
    + getPrice()
    + toString()
}

class Announcement {
    - TypeOfProperty typeOfProperty
    - TransactionType transactionType
    - Date publishDate
    - Comission comission
    - ArrayList<Photo> photos
    - boolean isPublished
    - int id
    - int idCounter
    + getProperty()
    + toString()
}

class AnnouncementRepository {
    +getAllAnnouncementsSortedByDefualtCriteria()
    +getAllAnnouncementsSortedBySortCriteria(String sortCriteria, String order)
    +getFilteredAnnouncements(TypeOfProperty typeOfProperty, TransactionType transactionType, int numberOfRooms)
    +getFilteredAndSortedAnnouncements(TypeOfProperty typeOfProperty, TransactionType transactionType,\n int numberOfRooms, String sortCriteria, String order)
}

class Repositories {
    +Repositories()
    +getInstance()
    +getAnnouncementRepository()
}

class ListAnnouncementsController {
    +getAnnoucementRepository()
    +getAllAnnouncementsSortedByDefualtCriteria()
    +getAllAnnouncementsSortedBySortCriteria(String sortCriteria, String order)
    +getFilteredAnnouncements(ypeOfProperty typeOfProperty, TransactionType transactionType, int numberOfRooms)
    +getFilteredAndSortedAnnouncements(TypeOfProperty typeOfProperty, TransactionType transactionType,\n int numberOfRooms, String sortCriteria, String order)
}

class ListAnouncementsUI {
+checkInputType(typeOfProperty, transactionType, numberOfRooms, sortCriteria)
+getAnnouncements(TypeOfProperty typeOfProperty, TransactionType transactionType,\n int numberOfRooms, String sortCriteria, String order)
+getController()
}

class Address{
    - String street
    - String city
    - String district
    - String state
    - int zipCode
}

Repositories -> Repositories : instances

ListAnouncementsUI .> ListAnnouncementsController

ListAnnouncementsController ..> Repositories

Repositories "1" --> "1" AnnouncementRepository : has

ListAnnouncementsController ..> AnnouncementRepository

AnnouncementRepository "1" --> "*" Announcement : has

Announcement "1" --> "1" Property : has

Property "1" --> "1" Address : has


@enduml