@startuml
skinparam monochrome true
skinparam packageStyle rectangle
skinparam shadowing false
skinparam classAttributeIconSize 0
hide circle
hide methods

title Domain Model

class PropertyOwner {
    name
    citizenCardNumber
    taxNumber
    address
    email
    telephoneNumber
}

class Agent {
    name
    citizenCardNumber
    taxNumber
    address
    email
    telephoneNumber
}

class Property{
    typeOfBusiness
    typeOfProperty
}

class Apartment{
    area
    location
    distanceFromCenter
    price
    numberOfBedrooms
    numberOfBathrooms
    numberOfParkingSpaces
    availableEquipment
}

class House{
    area
    location
    distanceFromCenter
    price
    numberOfBedrooms
    numberOfBathrooms
    numberOfParkingSpaces
    availableEquipment
    basement
    inhabitableLoft
    sunExposure
}

class Land{
     area
     location
     distanceFromCenter
     price

}
class RentalAgreement{
    rentalDuration
}

PropertyOwner "1" - "0..*" Property: submit >
PropertyOwner "1" -- "1" Agent:assign >
Agent "1" - "0..*" Property
Property "1"-"1" RentalAgreement
PropertyOwner "1" -"1" RentalAgreement:define >
Property <|-- House
Property <|-- Apartment
Property <|-- Land
@enduml