@startuml
skinparam monochrome true
skinparam packageStyle rectangle
skinparam shadowing false
'skinparam linetype ortho
skinparam classAttributeIconSize 0
skinparam groupInheritance 2
'skinparam linetype polyline

hide circle
hide methods
'left to right direction
title Domain Model

class Client{
}

class User{
}

class RegisteredUser{
}

class UnregisteredUser{
}

class PropertyOwner{
}

class Employee{
}

class Agent{
}

class StoreManager{
}

class StoreNetworkManager{
}

class SystemAdministrator{
}

class PropertyOrder{
}

class Property{
    typeOfBuisness
    typeOfProperty
    area
    location
    distanceFromCenter
    price
}

class Apartment{
    numberOfBedrooms
    numberOfBathrooms
    numberOfParkingSpaces
    availableEquipment
}

class House{
    numberOfBedrooms
    numberOfBathrooms
    numberOfParkingSpaces
    availableEquipment
    basement
    inhabitableLoft
    sunExposure
}

class Land{
}


SystemAdministrator "1" -left "*" Employee : registers
PropertyOwner "1" --> "*" PropertyOrder : requests advertisement
PropertyOwner "1" -right "1" Agent : contatcs
Agent "1" ----> "*" PropertyOrder : reviews
Agent "1" -----> "*" Property : publishes
UnregisteredUser "1" ---> "*" Property: can list

Client <|---- RegisteredUser
Client <|---- UnregisteredUser
Client <|---- PropertyOwner
User <|-- Client
User <|-- Employee
Employee <|-- Agent
Employee <|---- StoreManager
Employee <|---- StoreNetworkManager
Property <|-- House
Property <|-- Apartment
Property <|-- Land
Employee <|-- SystemAdministrator


@enduml